<?xml version="1.0" standalone="no"?>
<!DOCTYPE svg PUBLIC "-//W3C//DTD SVG 20010904//EN"
 "http://www.w3.org/TR/2001/REC-SVG-20010904/DTD/svg10.dtd">
<svg version="1.0" xmlns="http://www.w3.org/2000/svg"
 width="1280.000000pt" height="1148.000000pt" viewBox="0 0 1280.000000 1148.000000"
 preserveAspectRatio="xMidYMid meet">
<g transform="translate(0.000000,1148.000000) scale(0.100000,-0.100000)"
fill="#000000" stroke="none">
<path d="M6405 11469 c-38 -5 -128 -16 -200 -24 -71 -9 -191 -29 -265 -46 -74
-17 -197 -43 -272 -59 -163 -35 -295 -77 -402 -131 -86 -43 -187 -112 -226
-154 -14 -15 -75 -60 -136 -101 -309 -207 -607 -497 -840 -819 -264 -364 -473
-835 -574 -1295 -117 -536 -115 -1065 4 -1620 22 -100 38 -210 45 -310 53
-737 319 -1453 740 -1995 61 -79 62 -81 56 -130 -17 -143 -24 -278 -25 -442 0
-110 -4 -184 -10 -188 -5 -3 -83 -26 -172 -51 -1565 -433 -2820 -1278 -3531
-2376 -310 -479 -495 -974 -568 -1523 -11 -82 -22 -162 -25 -178 l-6 -27 6402
0 6402 0 -6 28 c-3 15 -14 95 -25 177 -34 254 -83 461 -165 700 -498 1454
-1990 2668 -3926 3196 -215 58 -190 26 -190 246 -1 171 -8 307 -25 439 -6 48
-6 50 56 129 165 212 336 507 439 755 76 183 84 197 205 377 306 454 500 986
572 1573 13 107 17 217 17 420 0 203 -4 313 -17 420 -84 680 -326 1276 -733
1800 -107 138 -392 427 -524 532 -459 363 -981 587 -1520 652 -274 33 -310 36
-396 35 -49 -1 -120 -5 -159 -10z"/>
</g>
</svg>
